<?xml version="1.0" encoding="utf-8"?>
<!-- Generator: Adobe Illustrator 24.0.1, SVG Export Plug-In . SVG Version: 6.00 Build 0)  -->
<svg version="1.1" xmlns="http://www.w3.org/2000/svg" xmlns:xlink="http://www.w3.org/1999/xlink" x="0px" y="0px"
	 viewBox="0 0 512 512" style="enable-background:new 0 0 512 512;" xml:space="preserve">
<style type="text/css">
	.st0{clip-path:url(#SVGID_2_);fill:#C4A56E;}
	.st1{clip-path:url(#SVGID_2_);}
	.st2{fill:#F0F0F0;}
	.st3{fill:#333333;}
	.st4{fill:none;stroke:#333333;stroke-width:7.2622;stroke-miterlimit:10;}
	.st5{display:none;}
	.st6{display:inline;}
</style>
<g id="Camada_2">
	<g>
		<g>
			<g>
				<defs>
					<path id="SVGID_1_" d="M212,123.8c0,0,67.1,16.4,137.8-42.4c0,0,7.1,28.9,36.8,58.6c29.7,29.7,58.6,36.8,58.6,36.8
						C386.6,247.7,403,314.8,403,314.8l-238.7,47.8L212,123.8z"/>
				</defs>
				<clipPath id="SVGID_2_">
					<use xlink:href="#SVGID_1_"  style="overflow:visible;"/>
				</clipPath>
				<path class="st0" d="M212,123.8c0,0,67.1,16.4,137.8-42.4c0,0,7.1,28.9,36.8,58.6c29.7,29.7,58.6,36.8,58.6,36.8
					C386.6,247.7,403,314.8,403,314.8l-238.7,47.8L212,123.8z"/>
				<g class="st1">
					<path class="st2" d="M283.1,236.7l15.9-15.9l7.1,7.1l-15.9,15.9c8.9,5.7,20.9,4.6,28.7-3.1c9-9,9-23.6,0-32.6
						c-9-9-23.6-9-32.6,0C278.4,215.8,277.4,227.8,283.1,236.7z"/>
					<path class="st2" d="M283.1,236.7L158.6,361.1l7.1,7.1l124.4-124.4c-1.4-0.9-2.7-1.9-3.9-3.1
						C285,239.4,283.9,238.1,283.1,236.7z"/>
					<path class="st2" d="M299,220.8l-15.9,15.9c0.9,1.4,1.9,2.7,3.1,3.9c1.2,1.2,2.5,2.3,3.9,3.1l15.9-15.9L299,220.8z"/>
				</g>
			</g>
			<path class="st3" d="M369.4,14.7l142.7,142.7c-9.7,6.5-24.7,14.8-44.7,19.2c-3.8,0.8-7.1,1.4-8.6,1.6
				c-28.1,3.8-60.3-26.3-72-38.2c-11.8-11.7-41.9-44-38.2-72c0.2-1.6,0.8-4.8,1.6-8.6C354.6,39.4,362.9,24.4,369.4,14.7z"/>
		</g>
		<g>
			<g>
				<path class="st3" d="M136.4,109.4l7.7,7.7c-72.8,72.8-72.4,191.6,0.9,264.9c73.3,73.3,192.1,73.7,264.9,0.9l7.7,7.7
					c-77,77-202.8,76.6-280.3-1S59.4,186.4,136.4,109.4z"/>
			</g>
			
				<ellipse transform="matrix(0.7071 -0.7071 0.7071 0.7071 -151.5861 405.2741)" class="st3" cx="413.4" cy="385.6" rx="16.6" ry="16.7"/>
			
				<ellipse transform="matrix(0.7071 -0.7071 0.7071 0.7071 -38.6231 132.5572)" class="st3" cx="140.7" cy="112.9" rx="15.4" ry="15.5"/>
			<circle class="st3" cx="139.4" cy="387.4" r="10.3"/>
			<line class="st4" x1="239.6" y1="487.5" x2="39.3" y2="287.3"/>
			<path class="st3" d="M251.2,484.6l5.8,5.8c2.4,2.4,2.4,6.3,0,8.7l-5.8,5.8c-2.4,2.4-6.3,2.4-8.7,0l-5.8-5.8
				c-2.4-2.4-2.4-6.3,0-8.7l5.8-5.8C244.9,482.2,248.8,482.2,251.2,484.6z"/>
			<path class="st3" d="M36.4,269.8l5.8,5.8c2.4,2.4,2.4,6.3,0,8.7l-5.8,5.8c-2.4,2.4-6.3,2.4-8.7,0l-5.8-5.8
				c-2.4-2.4-2.4-6.3,0-8.7l5.8-5.8C30.1,267.4,34,267.4,36.4,269.8z"/>
		</g>
	</g>
</g>
<g id="Capa_1" class="st5">
	<g class="st6">
		<g>
			<path d="M497,0h-60c-8.3,0-15,6.7-15,15v15H298.4C292.2,12.5,275.6,0,256,0s-36.2,12.5-42.4,30H90V15c0-8.3-6.7-15-15-15H15
				C6.7,0,0,6.7,0,15v60c0,8.3,6.7,15,15,15h60c8.3,0,15-6.7,15-15V59.8h62.4c-54.1,34.3-87,92.2-91,153.6
				C43.7,219.5,31,236.3,31,256c0,24.8,20.2,45,45,45s45-20.2,45-45c0-19.4-12.3-35.9-29.5-42.3C96.8,143.1,147.7,82.2,215.7,65
				c7.4,14.8,22.7,25,40.3,25s32.9-10.2,40.3-25c68,17.3,118.9,78.1,124.2,148.8c-17.2,6.3-29.5,22.9-29.5,42.3
				c0,24.8,20.2,45,45,45s45-20.2,45-45c0-19.7-12.7-36.5-30.4-42.6c-4-61.6-37-119.2-91-153.4H422v15c0,8.3,6.7,15,15,15h60
				c8.3,0,15-6.7,15-15V15C512,6.7,505.3,0,497,0z M60,60H30V30h30V60z M76,271c-8.3,0-15-6.7-15-15s6.7-15,15-15s15,6.7,15,15
				S84.3,271,76,271z M256,60c-8.3,0-15-6.7-15-15s6.7-15,15-15s15,6.7,15,15S264.3,60,256,60z M436,241c8.3,0,15,6.7,15,15
				s-6.7,15-15,15s-15-6.7-15-15S427.7,241,436,241z M482,60h-30V30h30V60z"/>
		</g>
	</g>
	<g class="st6">
		<g>
			<path d="M388.5,307.7l-120-180c0,0,0,0,0,0c0-0.1-0.1-0.1-0.1-0.2c-0.2-0.3-0.4-0.6-0.6-0.9c-6.3-7.9-18.4-7.3-24,0.9
				c0,0.1-0.1,0.1-0.1,0.2c0,0,0,0,0,0l-120,180c-4,5.9-3.2,13.9,1.9,18.9c29.9,29.9,49,69,54.2,110.9c-2.3,1.9-4.6,3.9-6.7,6.1
				C158.8,458,151,477,151,497c0,8.3,6.7,15,15,15h180c8.3,0,15-6.7,15-15c0-20-7.8-39-21.8-53.4c-2.1-2.2-4.4-4.2-6.7-6.1
				c5.2-41.9,24.2-81,54.2-110.9C391.7,321.6,392.4,313.6,388.5,307.7z M256,301c8.3,0,15,6.7,15,15s-6.7,15-15,15s-15-6.7-15-15
				S247.7,301,256,301z M183.6,482c6.2-17.8,23.2-31,42.4-31h60c19.3,0,36.2,13.2,42.4,31H183.6z M304.2,423.3
				c-5.9-1.5-12-2.3-18.2-2.3h-60c-6.2,0-12.3,0.8-18.2,2.3c-7-40.4-25.3-78.2-52.6-108.9L241,185.5v88c-17.5,6.2-30,22.9-30,42.4
				c0,24.8,20.2,45,45,45s45-20.2,45-45c0-19.6-12.5-36.2-30-42.4v-88l85.9,128.8C329.5,345.1,311.3,382.9,304.2,423.3z"/>
		</g>
	</g>
</g>
</svg>
