<?xml version="1.0" encoding="utf-8"?>
<!-- Generator: Adobe Illustrator 24.0.1, SVG Export Plug-In . SVG Version: 6.00 Build 0)  -->
<svg version="1.1" id="Camada_1" xmlns="http://www.w3.org/2000/svg" xmlns:xlink="http://www.w3.org/1999/xlink" x="0px" y="0px"
	 viewBox="0 0 110 40" style="enable-background:new 0 0 110 40;" xml:space="preserve">
<style type="text/css">
	.st0{fill:#F0F0F0;}
</style>
<g>
	<g>
		<path class="st0" d="M12.7,3.5L12.7,3.5c-0.9-1.3-1.9-2.4-3.2-3L7.9,0.1H2.3c-0.4,0-0.9,0.2-0.9,0.6v23.7c0,0.4,0.4,0.9,0.9,0.9
			l0,0h0.4c0.4,0,0.9-0.4,0.9-0.9l0,0V11.5h3.2c1.9,0.2,3.9-0.6,5-2.2c0.6-0.9,1.1-2.2,1.3-3.2V5.7C12.9,4.8,12.9,4.2,12.7,3.5z
			 M7.1,9.8H3.6V2h3.7c0.4,0,0.6,0,1.1,0c1.7,0.4,2.8,1.9,2.8,3.7v0.4c0,0.2,0,0.6,0,0.9C10.5,8.7,8.8,10,7.1,9.8z"/>
		<path class="st0" d="M61.9,3.5L61.9,3.5c-0.6-1.3-1.7-2.4-3-3l-1.7-0.4h-5.6c-0.4,0-0.9,0.2-0.9,0.6v23.7c0,0.4,0.4,0.9,0.9,0.9
			l0,0H52c0.4,0,0.9-0.4,0.9-0.9V11.5h3.2c1.9,0.2,3.9-0.6,5-2.2c0.6-0.9,1.1-2.2,1.3-3.2V5.7C62.1,4.8,62.1,4.2,61.9,3.5z
			 M56.3,9.8h-3.7V2h3.7c0.4,0,0.6,0,1.1,0c1.7,0.4,2.8,1.9,2.8,3.4v0.4c0,0.2,0,0.6-0.2,0.9C59.7,8.7,58,9.8,56.3,9.8z"/>
		<path class="st0" d="M84.8,23.4h-13V11.7h5.6c0.4,0,0.9-0.2,0.9-0.6l0,0v-0.4c0-0.4-0.2-0.9-0.6-0.9h-5.8V2h10.8
			c0.4,0,0.9-0.4,0.9-0.9l0,0V0.9c0-0.4-0.4-0.9-0.9-0.9H70.5c-0.2,0-0.6,0.4-0.6,0.6v23.7c0,0.4,0.4,0.9,0.9,0.9l0,0h14
			c0.4,0,0.9-0.4,0.9-0.9l0,0v-0.2C85.4,23.8,85.2,23.4,84.8,23.4z"/>
		<path class="st0" d="M108.5,24.4L108.5,24.4c-0.2-0.4-1.3-2.8-6-13.1h0.2c2.4-0.9,3.9-3,3.9-5.4c0-2.6-1.5-4.7-4.1-5.4l-1.1-0.4
			h-7.8c-0.4,0-0.9,0.2-0.9,0.6v23.7c0,0.4,0.4,0.9,0.9,0.9l0,0h0.4c0.4,0,0.9-0.4,0.9-0.9l0,0V2h5.8c0.4,0,0.6,0,1.1,0
			c1.5,0.4,2.6,1.9,2.6,3.7v0.4c0,1.3-0.6,2.4-1.7,3c-0.6,0.4-1.5,0.6-2.2,0.6L99.7,10l0.4,0.9c5.6,12.1,6.5,14,6.7,14.2l0.2,0.2
			h0.6C108.1,25.3,108.5,24.9,108.5,24.4C108.5,24.6,108.5,24.6,108.5,24.4L108.5,24.4z"/>
		<path class="st0" d="M46.4,24L33,0.5c-0.2-0.4-0.9-0.6-1.3-0.4c-0.2,0-0.2,0.2-0.4,0.4l-1.7,2.8l-1.7-2.8c0-0.2-0.2-0.4-0.6-0.4
			s-0.6,0.2-0.9,0.4L12.9,24c-0.2,0.2-0.2,0.6,0,0.9c0.2,0.2,0.4,0.4,0.6,0.6h0.6c0.2,0,0.2,0,0.4-0.2l0.6-1.3l0,0L27.4,3.1l1.3,2.4
			L18.1,24c-0.2,0.4,0,1.1,0.4,1.3c0.2,0,0.2,0.2,0.4,0.2h26.8c0.6,0,1.1-0.4,0.9-1.1C46.6,24.2,46.6,24,46.4,24z M20.5,23.4
			l9.1-15.9l9.3,15.9H20.5L20.5,23.4z M30.8,5.5l1.3-2.4l11.7,20.5H41L30.8,5.5z"/>
	</g>
	<g>
		<path class="st0" d="M17.1,35.1c0-1.8,1.1-2.8,2.2-2.8c0.6,0,1,0.2,1.3,0.6L20.6,32v-1.8h1.6v7.6h-1.3l-0.1-0.5h0
			c-0.4,0.4-0.9,0.7-1.4,0.7C18,37.9,17.1,36.8,17.1,35.1z M20.6,36.1v-2.2c-0.3-0.3-0.6-0.3-0.9-0.3c-0.5,0-1,0.5-1,1.5
			c0,1,0.4,1.5,1,1.5C20.1,36.6,20.3,36.4,20.6,36.1z"/>
		<path class="st0" d="M24.3,35.1c0-1.7,1.2-2.8,2.5-2.8c1.5,0,2.3,1.1,2.3,2.6c0,0.3,0,0.6-0.1,0.7h-3.2c0.1,0.8,0.7,1.1,1.4,1.1
			c0.4,0,0.8-0.1,1.2-0.3l0.5,1c-0.5,0.4-1.3,0.6-1.9,0.6C25.5,37.9,24.3,36.8,24.3,35.1z M27.8,34.5c0-0.6-0.3-1-0.9-1
			c-0.5,0-0.9,0.3-1,1H27.8z"/>
		<path class="st0" d="M30.9,37.1l0.7-1c0.5,0.4,0.9,0.6,1.4,0.6c0.5,0,0.7-0.2,0.7-0.5c0-0.4-0.5-0.5-1.1-0.7
			c-0.7-0.3-1.4-0.7-1.4-1.6c0-1,0.8-1.7,2-1.7c0.8,0,1.4,0.3,1.9,0.7l-0.7,1c-0.4-0.3-0.8-0.5-1.1-0.5c-0.4,0-0.6,0.2-0.6,0.4
			c0,0.3,0.5,0.5,1.1,0.7c0.7,0.3,1.4,0.6,1.4,1.6c0,1-0.8,1.7-2.2,1.7C32.2,37.9,31.4,37.5,30.9,37.1z"/>
		<path class="st0" d="M37.1,30.8c0-0.5,0.4-0.8,0.9-0.8c0.5,0,0.9,0.3,0.9,0.8c0,0.5-0.4,0.8-0.9,0.8
			C37.5,31.6,37.1,31.2,37.1,30.8z M37.2,32.4h1.6v5.4h-1.6V32.4z"/>
		<path class="st0" d="M40.9,38.6c0-0.4,0.3-0.8,0.8-1.1v0c-0.3-0.2-0.5-0.5-0.5-0.9c0-0.4,0.3-0.8,0.6-1v0
			c-0.4-0.3-0.7-0.8-0.7-1.4c0-1.3,1.1-1.9,2.2-1.9c0.3,0,0.6,0,0.8,0.1h2v1.2h-0.9c0.1,0.2,0.2,0.4,0.2,0.7c0,1.2-0.9,1.8-2.1,1.8
			c-0.2,0-0.4,0-0.7-0.1c-0.1,0.1-0.2,0.2-0.2,0.4c0,0.3,0.2,0.4,0.8,0.4h0.9c1.3,0,2,0.4,2,1.4c0,1.1-1.2,1.9-3,1.9
			C41.9,40,40.9,39.6,40.9,38.6z M44.6,38.4c0-0.3-0.3-0.4-0.8-0.4h-0.6c-0.4,0-0.6,0-0.8-0.1c-0.2,0.2-0.3,0.3-0.3,0.5
			c0,0.4,0.5,0.6,1.2,0.6C44.1,39,44.6,38.7,44.6,38.4z M44,34.2c0-0.6-0.3-0.9-0.7-0.9c-0.4,0-0.7,0.3-0.7,0.9
			c0,0.6,0.3,0.9,0.7,0.9C43.7,35.1,44,34.8,44,34.2z"/>
		<path class="st0" d="M48.1,32.4h1.3l0.1,0.7h0c0.5-0.4,1-0.8,1.7-0.8c1.2,0,1.7,0.8,1.7,2.2v3.3h-1.6v-3.1c0-0.8-0.2-1-0.7-1
			c-0.4,0-0.6,0.2-1,0.5v3.6h-1.6V32.4z"/>
		<path class="st0" d="M58.1,37.1l0.7-1c0.5,0.4,0.9,0.6,1.4,0.6c0.5,0,0.7-0.2,0.7-0.5c0-0.4-0.5-0.5-1.1-0.7
			c-0.7-0.3-1.4-0.7-1.4-1.6c0-1,0.8-1.7,2-1.7c0.8,0,1.4,0.3,1.9,0.7l-0.7,1c-0.4-0.3-0.8-0.5-1.1-0.5c-0.4,0-0.6,0.2-0.6,0.4
			c0,0.3,0.5,0.5,1.1,0.7c0.7,0.3,1.4,0.6,1.4,1.6c0,1-0.8,1.7-2.2,1.7C59.5,37.9,58.7,37.5,58.1,37.1z"/>
		<path class="st0" d="M64.4,35.8v-2.2h-0.7v-1.2l0.8-0.1l0.2-1.4H66v1.4h1.3v1.2H66v2.1c0,0.6,0.3,0.9,0.7,0.9
			c0.2,0,0.4-0.1,0.5-0.1l0.3,1.2c-0.3,0.1-0.7,0.2-1.2,0.2C65,37.9,64.4,37,64.4,35.8z"/>
		<path class="st0" d="M69.4,35.7v-3.3H71v3.1c0,0.8,0.2,1,0.7,1c0.4,0,0.6-0.2,1-0.6v-3.5h1.6v5.4h-1.3L72.8,37h0
			c-0.4,0.5-1,0.9-1.7,0.9C69.9,37.9,69.4,37,69.4,35.7z"/>
		<path class="st0" d="M76.4,35.1c0-1.8,1.1-2.8,2.2-2.8c0.6,0,1,0.2,1.3,0.6L79.9,32v-1.8h1.6v7.6h-1.3L80,37.2h0
			c-0.4,0.4-0.9,0.7-1.4,0.7C77.2,37.9,76.4,36.8,76.4,35.1z M79.9,36.1v-2.2c-0.3-0.3-0.6-0.3-0.9-0.3c-0.5,0-1,0.5-1,1.5
			c0,1,0.4,1.5,1,1.5C79.3,36.6,79.6,36.4,79.9,36.1z"/>
		<path class="st0" d="M83.8,30.8c0-0.5,0.4-0.8,0.9-0.8s0.9,0.3,0.9,0.8c0,0.5-0.4,0.8-0.9,0.8S83.8,31.2,83.8,30.8z M83.9,32.4
			h1.6v5.4h-1.6V32.4z"/>
		<path class="st0" d="M87.7,35.1c0-1.8,1.3-2.8,2.6-2.8c1.4,0,2.6,1,2.6,2.8c0,1.8-1.3,2.8-2.6,2.8C88.9,37.9,87.7,36.8,87.7,35.1z
			 M91.3,35.1c0-0.9-0.3-1.5-1-1.5c-0.7,0-1,0.6-1,1.5c0,0.9,0.3,1.5,1,1.5C90.9,36.6,91.3,36,91.3,35.1z"/>
	</g>
</g>
</svg>
