<?xml version="1.0" encoding="utf-8"?>
<!-- Generator: Adobe Illustrator 24.0.1, SVG Export Plug-In . SVG Version: 6.00 Build 0)  -->
<svg version="1.1" id="Camada_1" xmlns="http://www.w3.org/2000/svg" xmlns:xlink="http://www.w3.org/1999/xlink" x="0px" y="0px"
	 viewBox="0 0 512 512" style="enable-background:new 0 0 512 512;" xml:space="preserve">
<style type="text/css">
	.st0{display:none;}
	.st1{display:inline;}
	.st2{fill:#F0F0F0;}
	.st3{fill:#C4A56E;}
	.st4{fill:#9A8358;}
	.st5{fill:#67573A;}
	.st6{fill:none;stroke:#000000;stroke-width:5;stroke-linecap:round;stroke-linejoin:round;stroke-dasharray:1,10,1,10,1,10;}
	.st7{fill:none;}
	.st8{fill:#333333;}
	.st9{fill:#D0D0D0;}
	.st10{fill:none;stroke:#333333;stroke-width:5;stroke-linecap:round;stroke-miterlimit:10;}
</style>
<g id="Capa_1" class="st0">
	<g class="st1">
		<g>
			<path d="M257,131.1l-94-54.3c-3.1-1.8-6.9-1.8-10,0l-94,54.3c-3.1,1.8-5,5.1-5,8.7v108.5c0,3.6,1.9,6.9,5,8.7l94,54.3
				c1.5,0.9,3.3,1.3,5,1.3s3.5-0.4,5-1.3l94-54.3c3.1-1.8,5-5.1,5-8.7V139.7C262,136.2,260.1,132.9,257,131.1z M148,285.2l-64-37
				l20.3-11.7c4.8-2.8,6.4-8.9,3.7-13.7c-2.8-4.8-8.9-6.4-13.7-3.7L74,230.9V157l64,37l-12.2,7.1c-4.8,2.8-6.4,8.9-3.7,13.7
				c1.9,3.2,5.2,5,8.7,5c1.7,0,3.4-0.4,5-1.3l12.2-7.1V285.2z M158,152.8c-5.5,0-10,4.5-10,10v13.9l-64-36.9l64-37V123
				c0,5.5,4.5,10,10,10s10-4.5,10-10v-20.2l64,37l-64,36.9v-13.9C168,157.3,163.5,152.8,158,152.8z M242,230.9l-15-8.6
				c-4.8-2.8-10.9-1.1-13.7,3.7s-1.1,10.9,3.7,13.7l15,8.6l-64,37v-73.9l16.8,9.7c1.6,0.9,3.3,1.3,5,1.3c3.5,0,6.8-1.8,8.7-5
				c2.8-4.8,1.1-10.9-3.7-13.7L178,194l64-36.9V230.9z"/>
		</g>
	</g>
	<g class="st1">
		<g>
			<path d="M507,280.3l-118-68.1V201c0-1.9,1.6-3.5,3.5-3.5h21c13,0,23.5-10.5,23.5-23.5v-10.9l19.8-14.3c2.6-1.9,4.2-4.9,4.2-8.1
				V117h14c5.5,0,10-4.5,10-10V60h17c5.5,0,10-4.5,10-10s-4.5-10-10-10h-17V10c0-5.5-4.5-10-10-10h-96c-5.5,0-10,4.5-10,10v30h-53
				V10c0-5.5-4.5-10-10-10H10C4.5,0,0,4.5,0,10v368c0,5.5,4.5,10,10,10h236v43c0,3.6,1.9,6.9,5,8.7l123,71c1.5,0.9,3.3,1.3,5,1.3
				s3.5-0.4,5-1.3l123-71c3.1-1.8,5-5.1,5-8.7V289C512,285.4,510.1,282.1,507,280.3z M441,135.6l-14,10.1l-14-10.1V117h28V135.6z
				 M389,20h76v77h-14h-48h-14V20z M247.3,283.5c-0.9,1.6-1.4,3.5-1.3,5.2c0,0.1,0,0.1,0,0.2v79H20V20h276v20H194
				c-5.5,0-10,4.5-10,10s4.5,10,10,10h102v157.5c0,5.5,4.5,10,10,10s10-4.5,10-10V60h53v47c0,5.5,4.5,10,10,10h14v23.7
				c0,3.2,1.5,6.2,4.2,8.1l19.8,14.3V174c0,1.9-1.6,3.5-3.5,3.5h-21c-13,0-23.5,10.5-23.5,23.5v11.2l-115.5,66.7
				C251,279.5,248.7,281.1,247.3,283.5z M369,484.7l-103-59.5V305.8L369,365V484.7z M492,425.2l-103,59.5V365l20.3-11.7
				c4.8-2.8,6.4-8.9,3.7-13.7c-2.8-4.8-8.9-6.4-13.7-3.7L379,347.7l-102.6-59L379,229.5l102.6,59.2l-15,8.6
				c-4.8,2.8-6.4,8.9-3.7,13.7c1.9,3.2,5.2,5,8.7,5c1.7,0,3.4-0.4,5-1.3l15.4-8.9V425.2z"/>
		</g>
	</g>
	<g class="st1">
		<g>
			<path d="M443.9,318.9c-1.9-1.9-4.4-2.9-7.1-2.9c-2.6,0-5.2,1.1-7.1,2.9c-1.9,1.9-2.9,4.4-2.9,7.1s1.1,5.2,2.9,7.1
				c1.9,1.9,4.4,2.9,7.1,2.9c2.6,0,5.2-1.1,7.1-2.9c1.9-1.9,2.9-4.4,2.9-7.1S445.7,320.8,443.9,318.9z"/>
		</g>
	</g>
	<g class="st1">
		<g>
			<path d="M165,42.9c-1.9-1.9-4.4-2.9-7.1-2.9c-2.6,0-5.2,1.1-7.1,2.9c-1.9,1.9-2.9,4.4-2.9,7.1s1.1,5.2,2.9,7.1
				c1.9,1.9,4.4,2.9,7.1,2.9c2.6,0,5.2-1.1,7.1-2.9c1.9-1.9,2.9-4.4,2.9-7.1S166.8,44.8,165,42.9z"/>
		</g>
	</g>
</g>
<g>
	<g id="Camada_2_1_">
		<g>
			<path class="st2" d="M304.6,388H12.9C5.8,388,0,382.2,0,375.1V12.9C0,5.8,5.8,0,12.9,0h291.8c7.1,0,12.9,5.8,12.9,12.9v362.3
				C317.5,382.2,311.7,388,304.6,388z"/>
		</g>
		<g>
			<g>
				<polygon class="st3" points="379.1,487.7 256,422.1 256,299 379.1,364.6 				"/>
			</g>
			<g>
				<polygon class="st4" points="502,299 378.9,364.6 256,299 378.2,232.5 				"/>
			</g>
			<g>
				<polygon class="st5" points="502,422.1 379.1,487.7 379.1,364.6 502,299 				"/>
			</g>
		</g>
		<g>
			<path class="st6" d="M158.8,200.5"/>
		</g>
		<g>
			<g>
				<line class="st7" x1="158.8" y1="200.5" x2="158.8" y2="200.5"/>
			</g>
			<g>
				<path class="st8" d="M158.8,307.8c-0.4,0-0.8-0.1-1.2-0.3l-8.8-4.7c-1.2-0.7-1.7-2.2-1-3.4c0.7-1.2,2.2-1.7,3.4-1l8.8,4.7
					c1.2,0.7,1.7,2.2,1,3.4C160.6,307.3,159.7,307.8,158.8,307.8z M132.3,293.7c-0.4,0-0.8-0.1-1.2-0.3l-8.8-4.7
					c-1.2-0.7-1.7-2.2-1-3.4c0.7-1.2,2.2-1.7,3.4-1l8.8,4.7c1.2,0.7,1.7,2.2,1,3.4C134.1,293.2,133.2,293.7,132.3,293.7z
					 M105.9,279.6c-0.4,0-0.8-0.1-1.2-0.3l-8.8-4.7c-1.2-0.7-1.7-2.2-1-3.4c0.6-1.2,2.2-1.7,3.4-1l8.8,4.7c1.2,0.7,1.7,2.2,1,3.4
					C107.6,279.1,106.8,279.6,105.9,279.6z M79.4,265.4c-0.4,0-0.8-0.1-1.2-0.3l-8.8-4.7c-1.2-0.7-1.7-2.2-1-3.4
					c0.7-1.2,2.2-1.7,3.4-1l8.8,4.7c1.2,0.7,1.7,2.2,1,3.4C81.1,265,80.3,265.4,79.4,265.4z M54,250.7c-1.4,0-2.5-1.1-2.5-2.5v-10
					c0-1.4,1.1-2.5,2.5-2.5s2.5,1.1,2.5,2.5v10C56.5,249.6,55.4,250.7,54,250.7z M54,220.7c-1.4,0-2.5-1.1-2.5-2.5v-10
					c0-1.4,1.1-2.5,2.5-2.5s2.5,1.1,2.5,2.5v10C56.5,219.6,55.4,220.7,54,220.7z M54,190.7c-1.4,0-2.5-1.1-2.5-2.5v-10
					c0-1.4,1.1-2.5,2.5-2.5s2.5,1.1,2.5,2.5v10C56.5,189.6,55.4,190.7,54,190.7z M54,160.7c-1.4,0-2.5-1.1-2.5-2.5v-10
					c0-1.4,1.1-2.5,2.5-2.5s2.5,1.1,2.5,2.5v10C56.5,159.6,55.4,160.7,54,160.7z"/>
			</g>
			<g>
				<line class="st7" x1="54" y1="144.6" x2="158.8" y2="200.5"/>
			</g>
			<g>
				<line class="st7" x1="263.5" y1="144.6" x2="158.8" y2="200.5"/>
			</g>
			<g>
				<path class="st8" d="M263.5,147.1c-0.4,0-0.8-0.1-1.2-0.3l-8.8-4.7c-1.2-0.7-1.7-2.2-1-3.4c0.7-1.2,2.2-1.7,3.4-1l8.8,4.7
					c1.2,0.7,1.7,2.2,1,3.4C265.3,146.6,264.4,147.1,263.5,147.1z M69.9,138.4c-0.9,0-1.7-0.5-2.2-1.3c-0.7-1.2-0.2-2.7,1-3.4
					l8.8-4.8c1.2-0.7,2.7-0.2,3.4,1c0.7,1.2,0.2,2.7-1,3.4l-8.8,4.8C70.7,138.3,70.3,138.4,69.9,138.4z M237.1,132.9
					c-0.4,0-0.8-0.1-1.2-0.3l-8.8-4.7c-1.2-0.7-1.7-2.2-1-3.4c0.7-1.2,2.2-1.7,3.4-1l8.8,4.7c1.2,0.7,1.7,2.2,1,3.4
					C238.8,132.4,238,132.9,237.1,132.9z M96.3,124.1c-0.9,0-1.7-0.5-2.2-1.3c-0.7-1.2-0.2-2.7,1-3.4l8.8-4.8c1.2-0.7,2.7-0.2,3.4,1
					c0.7,1.2,0.2,2.7-1,3.4l-8.8,4.8C97.1,124,96.7,124.1,96.3,124.1z M210.6,118.7c-0.4,0-0.8-0.1-1.2-0.3l-8.8-4.7
					c-1.2-0.7-1.7-2.2-1-3.4c0.7-1.2,2.2-1.7,3.4-1l8.8,4.7c1.2,0.7,1.7,2.2,1,3.4C212.4,118.2,211.5,118.7,210.6,118.7z
					 M122.6,109.8c-0.9,0-1.7-0.5-2.2-1.3c-0.7-1.2-0.2-2.7,1-3.4l8.8-4.8c1.2-0.7,2.7-0.2,3.4,1c0.7,1.2,0.2,2.7-1,3.4l-8.8,4.8
					C123.5,109.7,123,109.8,122.6,109.8z M184.2,104.5c-0.4,0-0.8-0.1-1.2-0.3l-8.8-4.7c-1.2-0.7-1.7-2.2-1-3.4
					c0.7-1.2,2.2-1.7,3.4-1l8.8,4.7c1.2,0.7,1.7,2.2,1,3.4C186,104,185.1,104.5,184.2,104.5z M149,95.5c-0.9,0-1.7-0.5-2.2-1.3
					c-0.7-1.2-0.2-2.7,1-3.4l8.8-4.8c1.2-0.7,2.7-0.2,3.4,1c0.7,1.2,0.2,2.7-1,3.4l-8.8,4.8C149.8,95.4,149.4,95.5,149,95.5z"/>
			</g>
			<g>
				<path class="st8" d="M142.2,194.2c-0.4,0-0.8-0.1-1.2-0.3l-8.8-4.7c-1.2-0.7-1.7-2.2-1-3.4c0.7-1.2,2.2-1.7,3.4-1l8.8,4.7
					c1.2,0.7,1.7,2.2,1,3.4C144,193.7,143.1,194.2,142.2,194.2z M115.7,180.1c-0.4,0-0.8-0.1-1.2-0.3l-8.8-4.7
					c-1.2-0.7-1.7-2.2-1-3.4c0.6-1.2,2.2-1.7,3.4-1l8.8,4.7c1.2,0.7,1.7,2.2,1,3.4C117.5,179.6,116.6,180.1,115.7,180.1z
					 M89.3,165.9c-0.4,0-0.8-0.1-1.2-0.3l-8.8-4.7c-1.2-0.7-1.7-2.2-1-3.4c0.7-1.2,2.2-1.7,3.4-1l8.8,4.7c1.2,0.7,1.7,2.2,1,3.4
					C91,165.5,90.2,165.9,89.3,165.9z M62.8,151.8c-0.4,0-0.8-0.1-1.2-0.3l-8.8-4.7c-1.2-0.7-1.7-2.2-1-3.4c0.7-1.2,2.2-1.7,3.4-1
					l8.8,4.7c1.2,0.7,1.7,2.2,1,3.4C64.6,151.3,63.7,151.8,62.8,151.8z"/>
			</g>
			<g>
				<path class="st8" d="M175.3,194.2c-0.9,0-1.8-0.5-2.2-1.3c-0.6-1.2-0.2-2.7,1-3.4l8.8-4.7c1.2-0.7,2.7-0.2,3.4,1
					c0.6,1.2,0.2,2.7-1,3.4l-8.8,4.7C176.1,194.1,175.7,194.2,175.3,194.2z M201.8,180.1c-0.9,0-1.8-0.5-2.2-1.3
					c-0.6-1.2-0.2-2.7,1-3.4l8.8-4.7c1.2-0.6,2.7-0.2,3.4,1c0.6,1.2,0.2,2.7-1,3.4l-8.8,4.7C202.6,180,202.1,180.1,201.8,180.1z
					 M228.2,165.9c-0.9,0-1.8-0.5-2.2-1.3c-0.6-1.2-0.2-2.7,1-3.4l8.8-4.7c1.2-0.6,2.7-0.2,3.4,1c0.6,1.2,0.2,2.7-1,3.4l-8.8,4.7
					C229,165.8,228.6,165.9,228.2,165.9z M254.7,151.8c-0.9,0-1.8-0.5-2.2-1.3c-0.6-1.2-0.2-2.7,1-3.4l8.8-4.7
					c1.2-0.6,2.7-0.2,3.4,1c0.7,1.2,0.2,2.7-1,3.4l-8.8,4.7C255.5,151.7,255.1,151.8,254.7,151.8z"/>
			</g>
			<g>
				<path class="st8" d="M158.8,307.8c-0.9,0-1.8-0.5-2.2-1.3c-0.6-1.2-0.2-2.7,1-3.4l8.8-4.7c1.2-0.6,2.7-0.2,3.4,1
					c0.6,1.2,0.2,2.7-1,3.4l-8.8,4.7C159.6,307.7,159.2,307.8,158.8,307.8z M185.3,293.7c-0.9,0-1.8-0.5-2.2-1.3
					c-0.6-1.2-0.2-2.7,1-3.4l8.8-4.7c1.2-0.6,2.7-0.2,3.4,1c0.6,1.2,0.2,2.7-1,3.4l-8.8,4.7C186.1,293.6,185.7,293.7,185.3,293.7z
					 M211.7,279.5c-0.9,0-1.8-0.5-2.2-1.3c-0.6-1.2-0.2-2.7,1-3.4l8.8-4.7c1.2-0.7,2.7-0.2,3.4,1c0.6,1.2,0.2,2.7-1,3.4l-8.8,4.7
					C212.5,279.4,212.1,279.5,211.7,279.5z M238.2,265.4c-0.9,0-1.8-0.5-2.2-1.3c-0.6-1.2-0.2-2.7,1-3.4l8.8-4.7
					c1.2-0.6,2.7-0.2,3.4,1c0.6,1.2,0.2,2.7-1,3.4l-8.8,4.7C239,265.3,238.6,265.4,238.2,265.4z M263.5,250.6
					c-1.4,0-2.5-1.1-2.5-2.5v-10c0-1.4,1.1-2.5,2.5-2.5s2.5,1.1,2.5,2.5v10C266,249.5,264.9,250.6,263.5,250.6z M263.5,220.6
					c-1.4,0-2.5-1.1-2.5-2.5v-10c0-1.4,1.1-2.5,2.5-2.5s2.5,1.1,2.5,2.5v10C266,219.5,264.9,220.6,263.5,220.6z M263.5,190.6
					c-1.4,0-2.5-1.1-2.5-2.5v-10c0-1.4,1.1-2.5,2.5-2.5s2.5,1.1,2.5,2.5v10C266,189.5,264.9,190.6,263.5,190.6z M263.5,160.6
					c-1.4,0-2.5-1.1-2.5-2.5v-10c0-1.4,1.1-2.5,2.5-2.5s2.5,1.1,2.5,2.5v10C266,159.5,264.9,160.6,263.5,160.6z"/>
			</g>
			<g>
				<path class="st8" d="M158.8,307.8c-1.4,0-2.5-1.1-2.5-2.5v-10c0-1.4,1.1-2.5,2.5-2.5s2.5,1.1,2.5,2.5v10
					C161.3,306.7,160.2,307.8,158.8,307.8z M158.8,277.8c-1.4,0-2.5-1.1-2.5-2.5v-10c0-1.4,1.1-2.5,2.5-2.5s2.5,1.1,2.5,2.5v10
					C161.3,276.7,160.2,277.8,158.8,277.8z M158.8,247.8c-1.4,0-2.5-1.1-2.5-2.5v-10c0-1.4,1.1-2.5,2.5-2.5s2.5,1.1,2.5,2.5v10
					C161.3,246.7,160.2,247.8,158.8,247.8z M158.8,217.8c-1.4,0-2.5-1.1-2.5-2.5v-10c0-1.4,1.1-2.5,2.5-2.5s2.5,1.1,2.5,2.5v10
					C161.3,216.7,160.2,217.8,158.8,217.8z"/>
			</g>
			<g>
				<path class="st8" d="M54,251.9c-0.9,0-1.8-0.5-2.3-1.4c-0.6-1.3,0-2.7,1.2-3.3l9.1-4.2c1.3-0.6,2.7,0,3.3,1.2
					c0.6,1.3,0,2.7-1.2,3.3l-9.1,4.2C54.7,251.8,54.4,251.9,54,251.9z M81.2,239.2c-0.9,0-1.8-0.5-2.3-1.4c-0.6-1.3,0-2.7,1.2-3.3
					l9.1-4.2c1.3-0.6,2.7,0,3.3,1.2c0.6,1.3,0,2.7-1.2,3.3l-9.1,4.2C81.9,239.1,81.5,239.2,81.2,239.2z"/>
			</g>
			<g>
				<path class="st8" d="M263.5,251.9c-0.4,0-0.7-0.1-1.1-0.2l-9.1-4.2c-1.3-0.6-1.8-2.1-1.2-3.3s2.1-1.8,3.3-1.2l9.1,4.2
					c1.3,0.6,1.8,2.1,1.2,3.3C265.3,251.4,264.4,251.9,263.5,251.9z M236.3,239.2c-0.4,0-0.7-0.1-1.1-0.2l-9.1-4.2
					c-1.3-0.6-1.8-2.1-1.2-3.3c0.6-1.3,2.1-1.8,3.3-1.2l9.1,4.2c1.3,0.6,1.8,2.1,1.2,3.3C238.2,238.7,237.3,239.2,236.3,239.2z"/>
			</g>
			<g>
				<path class="st8" d="M158.3,130.5c-1.4,0-2.5-1.1-2.5-2.5l-0.1-10c0-1.4,1.1-2.5,2.5-2.5c0,0,0,0,0,0c1.4,0,2.5,1.1,2.5,2.5
					l0.1,10C160.9,129.4,159.7,130.5,158.3,130.5C158.4,130.5,158.4,130.5,158.3,130.5z M158.2,100.5c-1.4,0-2.5-1.1-2.5-2.5
					l-0.1-10c0-1.4,1.1-2.5,2.5-2.5c0,0,0,0,0,0c1.4,0,2.5,1.1,2.5,2.5l0.1,10C160.7,99.4,159.6,100.5,158.2,100.5
					C158.2,100.5,158.2,100.5,158.2,100.5z"/>
			</g>
		</g>
	</g>
	<g>
		<g>
			<rect x="157.9" y="47.5" class="st3" width="212.9" height="5"/>
		</g>
		<g>
			<g>
				<polygon class="st3" points="354.2,70.4 350.8,66.8 368.9,50 350.8,33.2 354.2,29.6 376.2,50 				"/>
			</g>
		</g>
	</g>
	<g>
		<g>
			<path class="st3" d="M437.3,86.8L437.3,86.8L437.3,86.8C437.3,86.8,437.3,86.8,437.3,86.8z"/>
		</g>
	</g>
	<g>
		<g>
			<g>
				<circle class="st8" cx="343.7" cy="146.9" r="12"/>
			</g>
		</g>
		<g>
			<g>
				<polygon class="st8" points="352.5,155.1 409.8,97.9 392.8,80.8 334.5,139.1 				"/>
			</g>
		</g>
		<g>
			<g>
				<path class="st8" d="M409.8,97.9c0,0,7.2-7.1,23.9-9.7c16.7-2.6,20.2-6.1,26-10.8l-29.3-29.3l21.5-21.5c0,0-19-10.8-36.1,2.1
					c0,0-9.1,6.8-11.5,18.4c-2.3,11.6-2.3,11.6-2.3,11.6s-3.1,15.6-9.3,22.3L409.8,97.9z"/>
			</g>
		</g>
		<g>
			<g>
				<path class="st3" d="M443.8,61.5l20.8-20.8c0,0,8.3,23.4-5,36.6L443.8,61.5z"/>
			</g>
		</g>
		<g>
			<g>
				<circle class="st2" cx="343.7" cy="146.9" r="3.4"/>
			</g>
		</g>
		<g>
			<g>
				<path class="st2" d="M351.2,142.3c-0.8,0-1.6-0.3-2.2-0.9c-1.2-1.2-1.2-3.1,0-4.3L399.2,87c1.2-1.2,3.1-1.2,4.3,0
					c1.2,1.2,1.2,3.1,0,4.3l-50.1,50.1C352.8,142,352,142.3,351.2,142.3z"/>
			</g>
		</g>
		<g>
			<g>
				
					<rect x="416.8" y="57.9" transform="matrix(0.7071 0.7071 -0.7071 0.7071 170.2941 -282.5545)" class="st2" width="18.9" height="12.8"/>
			</g>
		</g>
	</g>
	<g>
		<g>
			<rect x="423.7" y="108.4" class="st3" width="5" height="118.6"/>
		</g>
		<g>
			<g>
				<polygon class="st3" points="405.8,210.5 409.4,207.1 426.2,225.2 443,207.1 446.7,210.5 426.2,232.5 				"/>
			</g>
		</g>
	</g>
	<g>
		<path class="st9" d="M157.3,477.1H57.5c-5.8,0-10.6-4.7-10.6-10.6V345.1c0-5.8,4.7-10.6,10.6-10.6h99.8c5.8,0,10.6,4.7,10.6,10.6
			v121.4C167.9,472.3,163.2,477.1,157.3,477.1z"/>
	</g>
	<g>
		<line class="st10" x1="64.2" y1="364.6" x2="150.6" y2="364.6"/>
		<line class="st10" x1="64.2" y1="379.6" x2="150.6" y2="379.6"/>
		<line class="st10" x1="64.2" y1="394.6" x2="150.6" y2="394.6"/>
		<line class="st10" x1="64.2" y1="409.6" x2="150.6" y2="409.6"/>
		<line class="st10" x1="64.2" y1="424.6" x2="150.6" y2="424.6"/>
		<line class="st10" x1="64.2" y1="439.6" x2="150.6" y2="439.6"/>
		<line class="st10" x1="64.2" y1="454.6" x2="150.6" y2="454.6"/>
	</g>
</g>
</svg>
