<?xml version="1.0" encoding="utf-8"?>
<!-- Generator: Adobe Illustrator 24.0.1, SVG Export Plug-In . SVG Version: 6.00 Build 0)  -->
<svg version="1.1" id="Camada_2" xmlns="http://www.w3.org/2000/svg" xmlns:xlink="http://www.w3.org/1999/xlink" x="0px" y="0px"
	 viewBox="0 0 512 512" style="enable-background:new 0 0 512 512;" xml:space="preserve">
<style type="text/css">
	.st0{fill:#333333;}
	.st1{fill:#F0F0F0;}
	.st2{fill:#D0D0D0;}
	.st3{fill:#C4A56E;}
	.st4{fill:#E0E0E0;}
</style>
<g>
	<g>
		<path class="st0" d="M512,115H0.2V31.8C0.2,14.2,14.4,0,32,0h448.3C497.8,0,512,14.2,512,31.8V115z"/>
	</g>
	<g>
		<circle class="st1" cx="333.7" cy="62.6" r="10"/>
	</g>
	<g>
		<circle class="st1" cx="387.6" cy="62.6" r="10"/>
	</g>
	<g>
		<circle class="st1" cx="441.6" cy="62.6" r="10"/>
	</g>
	<g>
		<path class="st1" d="M221,72.6H70c-5.3,0-9.6-4.3-9.6-9.6v-0.8c0-5.3,4.3-9.6,9.6-9.6H221c5.3,0,9.6,4.3,9.6,9.6V63
			C230.6,68.3,226.3,72.6,221,72.6z"/>
	</g>
	<g>
		<path class="st2" d="M478.5,512H33.7c-18.5,0-33.5-15-33.5-33.5V115H512v363.5C512,497,497,512,478.5,512z"/>
	</g>
	<g>
		<circle class="st3" cx="93.6" cy="444.3" r="23.5"/>
	</g>
	<g>
		<circle class="st3" cx="201.9" cy="444.3" r="23.5"/>
	</g>
	<g>
		<circle class="st3" cx="310.1" cy="444.3" r="23.5"/>
	</g>
	<g>
		<circle class="st3" cx="418.3" cy="444.3" r="23.5"/>
	</g>
	<g>
		<g>
			<path class="st0" d="M446.2,153.9H65.4c-7.4,0-13.4,6-13.4,13.4v104c0,3.4,1.3,6.5,3.3,8.8l76.9-104.6l53.4,60.8l37.9-34.9
				l75.8,83.3h146.9c7.4,0,13.4-6,13.4-13.4v-104C459.6,159.9,453.6,153.9,446.2,153.9z"/>
		</g>
		<g>
			<polygon class="st4" points="185.6,236.3 230.6,284.7 299.3,284.7 223.5,201.4 			"/>
		</g>
		<g>
			<path class="st1" d="M132.2,175.5L55.3,280.2c2.5,2.8,6,4.6,10,4.6h151.6l-31.3-48.4L132.2,175.5z"/>
		</g>
		<g>
			<polygon class="st1" points="216.9,284.7 230.6,284.7 185.6,236.3 			"/>
		</g>
	</g>
	<g>
		<path class="st0" d="M337.8,307.8H174.2c-2.1,0-3.8-1.7-3.8-3.8l0,0c0-2.1,1.7-3.8,3.8-3.8h163.6c2.1,0,3.8,1.7,3.8,3.8l0,0
			C341.6,306.1,339.9,307.8,337.8,307.8z"/>
	</g>
	<g>
		<g>
			<path class="st0" d="M145.5,339.9H52c-1.4,0-2.5-1.1-2.5-2.5s1.1-2.5,2.5-2.5h93.5c1.4,0,2.5,1.1,2.5,2.5
				S146.9,339.9,145.5,339.9z"/>
		</g>
		<g>
			<path class="st0" d="M145.5,352H52c-1.4,0-2.5-1.1-2.5-2.5s1.1-2.5,2.5-2.5h93.5c1.4,0,2.5,1.1,2.5,2.5S146.9,352,145.5,352z"/>
		</g>
		<g>
			<path class="st0" d="M145.5,364.1H52c-1.4,0-2.5-1.1-2.5-2.5s1.1-2.5,2.5-2.5h93.5c1.4,0,2.5,1.1,2.5,2.5
				S146.9,364.1,145.5,364.1z"/>
		</g>
		<g>
			<path class="st0" d="M145.5,376.3H52c-1.4,0-2.5-1.1-2.5-2.5s1.1-2.5,2.5-2.5h93.5c1.4,0,2.5,1.1,2.5,2.5
				S146.9,376.3,145.5,376.3z"/>
		</g>
		<g>
			<path class="st0" d="M145.5,388.4H52c-1.4,0-2.5-1.1-2.5-2.5s1.1-2.5,2.5-2.5h93.5c1.4,0,2.5,1.1,2.5,2.5
				S146.9,388.4,145.5,388.4z"/>
		</g>
	</g>
	<g>
		<g>
			<path class="st0" d="M459.6,339.9h-93.5c-1.4,0-2.5-1.1-2.5-2.5s1.1-2.5,2.5-2.5h93.5c1.4,0,2.5,1.1,2.5,2.5
				S461,339.9,459.6,339.9z"/>
		</g>
		<g>
			<path class="st0" d="M459.6,352h-93.5c-1.4,0-2.5-1.1-2.5-2.5s1.1-2.5,2.5-2.5h93.5c1.4,0,2.5,1.1,2.5,2.5S461,352,459.6,352z"/>
		</g>
		<g>
			<path class="st0" d="M459.6,364.1h-93.5c-1.4,0-2.5-1.1-2.5-2.5s1.1-2.5,2.5-2.5h93.5c1.4,0,2.5,1.1,2.5,2.5
				S461,364.1,459.6,364.1z"/>
		</g>
		<g>
			<path class="st0" d="M459.6,376.3h-93.5c-1.4,0-2.5-1.1-2.5-2.5s1.1-2.5,2.5-2.5h93.5c1.4,0,2.5,1.1,2.5,2.5
				S461,376.3,459.6,376.3z"/>
		</g>
		<g>
			<path class="st0" d="M459.6,388.4h-93.5c-1.4,0-2.5-1.1-2.5-2.5s1.1-2.5,2.5-2.5h93.5c1.4,0,2.5,1.1,2.5,2.5
				S461,388.4,459.6,388.4z"/>
		</g>
	</g>
	<g>
		<g>
			<path class="st0" d="M302.5,339.9H209c-1.4,0-2.5-1.1-2.5-2.5s1.1-2.5,2.5-2.5h93.5c1.4,0,2.5,1.1,2.5,2.5
				S303.9,339.9,302.5,339.9z"/>
		</g>
		<g>
			<path class="st0" d="M302.5,352H209c-1.4,0-2.5-1.1-2.5-2.5s1.1-2.5,2.5-2.5h93.5c1.4,0,2.5,1.1,2.5,2.5S303.9,352,302.5,352z"/>
		</g>
		<g>
			<path class="st0" d="M302.5,364.1H209c-1.4,0-2.5-1.1-2.5-2.5s1.1-2.5,2.5-2.5h93.5c1.4,0,2.5,1.1,2.5,2.5
				S303.9,364.1,302.5,364.1z"/>
		</g>
		<g>
			<path class="st0" d="M302.5,376.3H209c-1.4,0-2.5-1.1-2.5-2.5s1.1-2.5,2.5-2.5h93.5c1.4,0,2.5,1.1,2.5,2.5
				S303.9,376.3,302.5,376.3z"/>
		</g>
		<g>
			<path class="st0" d="M302.5,388.4H209c-1.4,0-2.5-1.1-2.5-2.5s1.1-2.5,2.5-2.5h93.5c1.4,0,2.5,1.1,2.5,2.5
				S303.9,388.4,302.5,388.4z"/>
		</g>
	</g>
</g>
</svg>
